<svg width="94" height="94" viewBox="0 0 94 94" fill="none" xmlns="http://www.w3.org/2000/svg">
<g filter="url(#filter0_d_529_12685)">
<circle cx="47" cy="49" r="25" fill="#00C064"/>
<circle cx="47" cy="49" r="26" stroke="white" stroke-width="2"/>
</g>
<path d="M56.0225 50.5037H48.5037V58.0225C48.5037 58.8496 47.827 59.5263 46.9999 59.5263C46.1729 59.5263 45.4962 58.8496 45.4962 58.0225V50.5037H37.9774C37.1503 50.5037 36.4736 49.827 36.4736 48.9999C36.4736 48.1729 37.1503 47.4962 37.9774 47.4962H45.4962V39.9774C45.4962 39.1503 46.1729 38.4736 46.9999 38.4736C47.827 38.4736 48.5037 39.1503 48.5037 39.9774V47.4962H56.0225C56.8496 47.4962 57.5263 48.1729 57.5263 48.9999C57.5263 49.827 56.8496 50.5037 56.0225 50.5037Z" fill="white"/>
<defs>
<filter id="filter0_d_529_12685" x="0" y="0" width="94" height="94" filterUnits="userSpaceOnUse" color-interpolation-filters="sRGB">
<feFlood flood-opacity="0" result="BackgroundImageFix"/>
<feColorMatrix in="SourceAlpha" type="matrix" values="0 0 0 0 0 0 0 0 0 0 0 0 0 0 0 0 0 0 127 0" result="hardAlpha"/>
<feOffset dy="-2"/>
<feGaussianBlur stdDeviation="10"/>
<feComposite in2="hardAlpha" operator="out"/>
<feColorMatrix type="matrix" values="0 0 0 0 0 0 0 0 0 0 0 0 0 0 0 0 0 0 0.1 0"/>
<feBlend mode="normal" in2="BackgroundImageFix" result="effect1_dropShadow_529_12685"/>
<feBlend mode="normal" in="SourceGraphic" in2="effect1_dropShadow_529_12685" result="shape"/>
</filter>
</defs>
</svg>
