<svg width="26" height="26" viewBox="0 0 26 26" fill="none" xmlns="http://www.w3.org/2000/svg">
<path d="M17.6024 3.4668C15.5064 3.4668 13.7154 4.9608 12.7314 5.9908C11.7474 4.9608 9.9604 3.4668 7.8654 3.4668C4.2544 3.4668 1.7334 5.9838 1.7334 9.5868C1.7334 13.5568 4.8644 16.1228 7.8934 18.6048C9.3234 19.7778 10.8034 20.9898 11.9384 22.3338C12.1294 22.5588 12.4094 22.6888 12.7034 22.6888H12.7614C13.0564 22.6888 13.3354 22.5578 13.5254 22.3338C14.6624 20.9898 16.1414 19.7768 17.5724 18.6048C20.6004 16.1238 23.7334 13.5578 23.7334 9.5868C23.7334 5.9838 21.2124 3.4668 17.6024 3.4668Z" fill="#C6C6C6"/>
</svg>
