<svg width="26" height="26" viewBox="0 0 26 26" fill="none" xmlns="http://www.w3.org/2000/svg">
<path d="M16.7917 15.0421H15.9358L15.6325 14.758C16.6942 13.5588 17.3333 12.0019 17.3333 10.3082C17.3333 6.53172 14.1808 3.47052 10.2917 3.47052C6.4025 3.47052 3.25 6.53172 3.25 10.3082C3.25 14.0848 6.4025 17.146 10.2917 17.146C12.0358 17.146 13.6392 16.5253 14.8742 15.4944L15.1667 15.7889V16.62L20.5833 21.8693L22.1975 20.3018L16.7917 15.0421ZM10.2917 15.0421C7.59417 15.0421 5.41667 12.9276 5.41667 10.3082C5.41667 7.68887 7.59417 5.57444 10.2917 5.57444C12.9892 5.57444 15.1667 7.68887 15.1667 10.3082C15.1667 12.9276 12.9892 15.0421 10.2917 15.0421Z" fill="white"/>
</svg>
