<svg width="84" height="30" viewBox="0 0 84 30" fill="none" xmlns="http://www.w3.org/2000/svg">
<path d="M18.8574 5.32861C17.9297 5.35552 16.9727 5.32861 16.045 5.32861V10.3138C15.285 9.69062 14.8351 8.63411 14.8351 6.92613V4.00018H6.39646V6.92613C6.39646 9.55466 5.24386 10.665 3.6958 10.9355V16.4362C6.11419 16.4362 8.16798 15.9221 10.0527 15.0539C9.48964 14.6744 8.98391 14.2679 8.58991 13.8345L9.18091 13.3473C11.7125 15.9221 14.4117 16.4362 17.5622 16.4362V11.5586C17.9841 11.5586 18.4061 11.5317 18.8559 11.5317V19.7686C21.0215 19.9045 25.5774 19.3083 27.5474 18.5223V4.00018H18.8559V5.32861H18.8574Z" fill="white"/>
<path d="M16.6919 20.6094C13.7942 20.5017 12.0227 19.4169 12.0227 17.1962H3.86636C2.91076 24.3765 7.66374 26.6255 16.0171 26.6255C20.4893 26.6255 24.2587 26.2729 27.5489 25.4062V19.4183C24.7365 20.5017 20.2364 20.7184 16.6919 20.6108V20.6094Z" fill="white"/>
<path d="M45.2949 19.7697C47.4604 19.9057 51.4548 19.3094 53.4234 18.5234V4.00134H45.2949V19.7711V19.7697Z" fill="white"/>
<path d="M42.5664 20.6094C39.6687 20.5286 38.1795 19.4169 38.1795 17.1962H30.0231C29.0661 24.3765 33.5382 26.6255 41.8916 26.6255C46.9254 26.6255 50.1332 26.2729 53.4234 25.4062V19.4183C50.611 20.5017 46.674 20.7184 42.5664 20.6108V20.6094Z" fill="white"/>
<path d="M60.3409 12.7526L60.9319 12.2654C63.4635 14.8387 66.1641 15.3543 69.3132 15.3543V10.9384C67.8504 10.9384 66.8095 10.2615 66.6125 9.23186H69.3132V4.00311H55.4468V9.23186H58.118C57.949 10.777 56.8802 11.4808 55.4468 11.4808V16.4391C57.8652 16.4391 60.8746 15.925 62.7593 14.6773C61.7743 14.0272 61.0157 13.4579 60.3409 12.754V12.7526Z" fill="white"/>
<path d="M78.1733 6.27608V4.00018H70.0464V15.6247H78.1733V12.6704H80.3109V6.27608H78.1733Z" fill="white"/>
<path d="M67.0081 16.0037C58.8797 16.0037 55.2793 17.4936 55.2793 21.3146C55.2793 25.1356 58.8797 26.6255 67.0081 26.6255C75.1365 26.6255 78.7369 25.1356 78.7369 21.3146C78.7369 17.4936 75.1365 16.0037 67.0081 16.0037ZM70.9172 21.9377C68.4415 22.0723 65.4615 21.7211 63.2387 20.7184L63.6047 19.9324C65.7423 20.8798 68.5826 21.2863 70.9172 21.1517V21.9377Z" fill="white"/>
<path fill-rule="evenodd" clip-rule="evenodd" d="M37.025 16.7615C42.0881 16.7615 44.7873 14.4035 44.7873 10.1774C44.7873 5.95136 42.1161 3.59332 37.025 3.59332C31.9338 3.59332 29.2905 5.92303 29.2905 10.1774C29.2905 14.4318 31.9912 16.7615 37.025 16.7615ZM34.3744 8.68051C34.0965 8.68051 33.8701 8.46356 33.8701 8.19414V7.1335C33.8701 6.8655 34.095 6.64714 34.3744 6.64714C34.6537 6.64714 34.8786 6.86409 34.8786 7.1335V8.19414C34.8786 8.46214 34.6537 8.68051 34.3744 8.68051ZM35.8213 8.19414C35.8213 8.46356 36.0477 8.68051 36.3255 8.68051C36.6049 8.68051 36.8298 8.46214 36.8298 8.19414V7.1335C36.8298 6.86409 36.6049 6.64714 36.3255 6.64714C36.0462 6.64714 35.8213 6.8655 35.8213 7.1335V8.19414Z" fill="white"/>
<path d="M40.5708 4.97791C40.39 4.86447 40.34 4.63051 40.4576 4.4561L40.9237 3.76697C41.0413 3.59256 41.2839 3.54293 41.4647 3.65778C41.6455 3.77264 41.6955 4.00519 41.5779 4.1796L41.1118 4.86873C40.9942 5.04314 40.7517 5.09277 40.5708 4.97791Z" fill="white"/>
<path d="M39.8033 4.88566C39.5886 4.8573 39.4401 4.66729 39.4695 4.46168L39.5842 3.64635C39.6136 3.44075 39.8106 3.29611 40.0238 3.32447C40.2369 3.35283 40.3869 3.54284 40.3575 3.74845L40.2428 4.56378C40.2134 4.76938 40.0164 4.91402 39.8033 4.88566Z" fill="white"/>
</svg>
